<?xml version="1.0" standalone="no"?>
<!DOCTYPE svg PUBLIC "-//W3C//DTD SVG 20010904//EN"
 "http://www.w3.org/TR/2001/REC-SVG-20010904/DTD/svg10.dtd">
<svg version="1.0" xmlns="http://www.w3.org/2000/svg"
 width="1093.000000pt" height="492.000000pt" viewBox="0 0 1093.000000 492.000000"
 preserveAspectRatio="xMidYMid meet">

<g transform="translate(0.000000,492.000000) scale(0.100000,-0.100000)"
fill="#000000" stroke="none">
<path d="M6671 4454 c-24 -20 -31 -34 -31 -60 0 -62 71 -105 120 -74 11 7 23
1 47 -22 18 -18 33 -27 33 -22 0 6 -11 21 -24 34 -19 17 -24 30 -20 54 l5 31
-14 -31 c-35 -73 -137 -48 -137 33 0 34 38 73 69 73 23 0 61 -28 71 -54 9 -21
9 -21 9 2 1 15 -10 29 -31 42 -43 26 -60 25 -97 -6z"/>
<path d="M2860 4267 c-3 -3 -54 -8 -115 -10 -60 -3 -123 -10 -138 -16 -16 -6
-63 -11 -105 -11 -61 -1 -92 -6 -147 -29 -72 -29 -101 -55 -77 -70 15 -9 -35
-32 -96 -46 -39 -8 -37 -28 4 -36 l29 -6 -28 -13 -28 -14 23 -13 c13 -7 46
-13 73 -13 28 0 60 -6 72 -13 32 -18 72 -82 79 -126 5 -29 13 -42 33 -51 l26
-12 -22 -11 c-26 -11 -32 -43 -8 -33 26 10 31 -25 7 -45 -28 -22 -29 -87 -2
-148 11 -24 20 -50 20 -58 0 -8 15 -28 33 -44 50 -46 75 -38 117 42 48 90 83
129 115 129 16 0 38 12 57 30 25 26 37 30 82 30 43 0 58 5 86 30 l35 29 -42 1
c-33 0 -43 4 -43 16 0 14 8 16 55 11 42 -4 55 -2 55 8 0 16 -27 45 -41 45 -6
0 -7 5 -4 10 4 7 13 7 26 0 23 -13 25 -3 2 22 -21 24 -10 34 22 20 22 -10 25
-9 31 14 4 14 4 43 1 66 -5 36 -3 39 14 35 23 -6 23 -3 3 31 -14 25 -14 31 1
66 9 21 25 40 36 43 10 3 19 10 19 15 0 5 17 16 38 25 47 21 27 27 -70 21 -44
-2 -67 0 -64 7 2 6 -23 9 -73 7 -96 -4 -86 15 12 25 102 9 84 26 -40 39 -32 3
-60 4 -63 1z"/>
<path d="M1985 4249 c-22 -5 -57 -11 -77 -14 -23 -4 -38 -11 -38 -20 0 -18 12
-25 69 -40 30 -7 47 -17 49 -29 3 -14 -1 -17 -17 -11 -24 7 -26 2 -11 -26 9
-16 7 -19 -9 -19 -12 0 -26 11 -35 28 -18 34 -64 78 -92 86 -15 5 -26 -2 -43
-25 -13 -17 -19 -34 -14 -38 4 -3 14 -19 21 -35 12 -27 16 -28 61 -24 39 4 50
1 60 -13 16 -26 14 -31 -9 -24 -13 4 -27 -1 -42 -14 -26 -25 -29 -24 90 -25
66 -1 91 2 88 10 -2 6 7 17 21 25 13 7 31 29 39 48 18 42 29 51 69 51 40 1
115 35 115 53 0 9 16 17 43 22 l42 7 -42 18 c-34 15 -66 19 -170 18 -70 0
-146 -5 -168 -9z"/>
<path d="M7792 4147 c-15 -17 1 -42 23 -33 18 6 17 37 -1 43 -6 2 -16 -2 -22
-10z"/>
<path d="M7640 4040 l0 -100 60 0 c47 0 60 3 60 15 0 11 -12 15 -45 15 l-45 0
0 85 c0 69 -3 85 -15 85 -12 0 -15 -18 -15 -100z"/>
<path d="M8270 4040 c0 -93 1 -100 20 -100 17 0 20 7 20 41 0 36 2 40 22 37
15 -2 29 -16 41 -40 11 -26 24 -38 37 -38 20 0 20 0 1 39 -20 38 -20 39 -1 56
11 10 20 30 20 45 0 43 -28 60 -98 60 l-62 0 0 -100z m115 40 c0 -22 -5 -25
-37 -28 -36 -3 -38 -2 -38 28 0 30 2 31 38 28 32 -3 37 -6 37 -28z"/>
<path d="M9130 4100 c0 -11 -7 -20 -15 -20 -8 0 -15 -7 -15 -15 0 -8 7 -15 15
-15 12 0 15 -13 15 -55 0 -42 3 -55 15 -55 12 0 15 13 15 55 0 42 3 55 15 55
8 0 15 6 15 14 0 8 -7 16 -15 20 -8 3 -15 12 -15 21 0 8 -7 15 -15 15 -8 0
-15 -9 -15 -20z"/>
<path d="M1590 4095 c-11 -13 -8 -15 22 -15 19 0 39 -5 46 -12 7 -7 12 -8 12
-2 0 16 -34 44 -52 44 -9 0 -21 -7 -28 -15z"/>
<path d="M1447 4072 c-23 -25 -21 -34 4 -30 24 3 47 48 25 48 -7 0 -20 -8 -29
-18z"/>
<path d="M1707 4084 c-11 -11 3 -24 24 -24 12 0 19 5 17 13 -5 14 -31 21 -41
11z"/>
<path d="M7790 4010 c0 -56 3 -70 15 -70 12 0 15 14 15 70 0 56 -3 70 -15 70
-12 0 -15 -14 -15 -70z"/>
<path d="M7879 4013 c19 -47 33 -69 47 -71 18 -3 25 9 71 126 3 6 -2 12 -11
12 -15 0 -25 -16 -51 -85 -6 -17 -10 -11 -27 33 -14 36 -26 52 -39 52 -16 0
-15 -6 10 -67z"/>
<path d="M8037 4062 c-27 -30 -22 -87 9 -111 35 -27 57 -26 91 4 22 19 25 24
10 25 -9 0 -26 -6 -37 -12 -15 -9 -25 -10 -37 -2 -36 23 -26 34 31 34 49 0 56
2 56 20 0 52 -88 81 -123 42z m67 -8 c30 -12 18 -34 -19 -34 -37 0 -43 8 -23
28 14 14 20 14 42 6z"/>
<path d="M8471 4054 c-24 -31 -24 -31 -11 -71 10 -29 45 -53 75 -53 8 0 27 11
42 25 26 22 26 24 8 25 -12 0 -26 -5 -32 -11 -15 -15 -63 -3 -63 16 0 12 13
15 56 15 l56 0 -6 28 c-14 57 -88 73 -125 26z m73 0 c30 -12 18 -34 -19 -34
-37 0 -43 8 -23 28 14 14 20 14 42 6z"/>
<path d="M8630 3975 c0 -87 3 -105 15 -105 11 0 15 11 15 39 l0 40 31 -11 c26
-9 35 -7 57 9 34 25 42 85 16 114 -19 21 -73 26 -92 7 -9 -9 -12 -9 -12 0 0 7
-7 12 -15 12 -12 0 -15 -18 -15 -105z m108 63 c17 -17 15 -44 -4 -62 -22 -23
-41 -20 -59 8 -13 19 -14 29 -5 45 12 23 49 28 68 9z"/>
<path d="M8830 4060 c-41 -41 -15 -114 46 -126 66 -13 115 75 69 126 -25 27
-88 27 -115 0z m92 -24 c17 -24 8 -57 -18 -68 -23 -11 -29 -10 -45 11 -24 29
-24 36 1 61 20 20 47 18 62 -4z"/>
<path d="M9000 4009 c0 -55 3 -69 15 -69 11 0 15 11 15 36 0 42 15 74 35 74 8
0 15 6 15 14 0 9 -13 13 -40 13 l-40 0 0 -68z"/>
<path d="M9232 4068 c-28 -28 -10 -60 41 -72 15 -3 27 -13 27 -21 0 -17 -35
-21 -45 -5 -8 13 -35 13 -35 0 0 -5 11 -17 25 -26 30 -19 70 -12 85 15 15 28
3 49 -36 61 -19 6 -34 18 -34 26 0 17 14 18 40 2 24 -15 37 -4 20 17 -15 18
-71 20 -88 3z"/>
<path d="M10140 4058 l23 -28 -23 -27 -24 -28 29 28 30 27 -30 28 -29 27 24
-27z"/>
<path d="M1275 4020 l-30 -20 32 0 c18 0 47 9 65 20 l33 20 -35 0 c-19 0 -48
-9 -65 -20z"/>
<path d="M1724 4005 c11 -8 25 -15 31 -15 7 0 17 -11 23 -25 9 -19 20 -25 44
-26 18 -1 63 -3 101 -5 39 -2 67 1 67 7 0 15 -47 29 -97 29 -26 0 -54 6 -62
13 -17 14 -88 37 -112 37 -10 -1 -8 -5 5 -15z"/>
<path d="M1470 4001 c0 -15 -41 -20 -66 -9 -19 9 -28 8 -44 -7 -29 -26 -11
-39 51 -37 100 2 131 18 92 48 -21 16 -33 18 -33 5z"/>
<path d="M1575 4000 c-3 -5 -2 -10 4 -10 5 0 13 5 16 10 3 6 2 10 -4 10 -5 0
-13 -4 -16 -10z"/>
<path d="M1617 3986 c-5 -13 12 -26 33 -26 5 0 14 9 20 20 10 18 8 20 -19 20
-16 0 -31 -6 -34 -14z"/>
<path d="M5198 3971 c-14 -11 -49 -23 -79 -27 -65 -8 -155 -47 -169 -74 -7
-13 -21 -20 -38 -20 -46 0 -57 -20 -25 -47 31 -25 19 -29 -37 -13 -27 8 -36 7
-43 -5 -11 -21 -24 -19 -30 5 -7 26 -27 26 -27 0 0 -39 28 -89 59 -105 36 -18
40 -35 10 -35 -12 0 -34 -13 -49 -30 -31 -33 -57 -41 -45 -12 16 36 16 70 1
106 -9 21 -13 48 -10 61 11 44 -69 45 -86 2 -5 -16 -2 -33 12 -58 29 -53 20
-64 -26 -33 -67 46 -150 57 -112 15 23 -25 11 -31 -65 -31 -58 0 -75 -4 -118
-31 -51 -32 -71 -32 -71 1 0 10 -7 20 -15 24 -10 4 -15 -1 -15 -15 0 -12 -15
-35 -32 -51 -18 -17 -32 -38 -30 -46 4 -15 -9 -14 -52 4 -16 6 -18 4 -13 -9 3
-9 2 -19 -3 -22 -8 -5 -60 61 -60 77 0 11 48 10 54 -1 8 -12 59 2 63 16 7 19
-127 103 -164 103 -22 0 -33 5 -33 15 0 38 -57 37 -171 -3 -80 -29 -101 -43
-95 -68 4 -15 -17 -44 -89 -122 -89 -96 -108 -122 -86 -122 5 0 13 -17 18 -37
9 -38 19 -43 56 -28 14 6 22 -2 39 -44 22 -51 35 -59 72 -45 9 3 16 18 16 32
0 14 11 39 24 56 16 22 21 37 15 51 -18 47 -10 71 42 124 29 28 58 51 65 51
26 0 24 -19 -5 -42 -26 -21 -51 -72 -51 -104 0 -23 51 -42 90 -33 21 4 42 3
55 -4 18 -10 16 -12 -23 -20 -35 -7 -45 -14 -54 -37 -5 -16 -19 -32 -29 -35
-11 -4 -27 -22 -36 -40 -15 -32 -19 -34 -88 -40 -101 -10 -109 -7 -113 37 -4
48 -32 42 -32 -7 0 -27 -6 -37 -33 -54 -18 -11 -51 -43 -73 -70 -32 -42 -45
-50 -71 -51 -22 0 -33 -5 -33 -14 0 -8 -12 -19 -27 -24 -16 -6 -21 -11 -12
-11 21 -1 52 -60 48 -91 -4 -23 -8 -25 -49 -23 -25 2 -60 -2 -78 -8 -28 -9
-33 -15 -28 -33 3 -11 0 -35 -6 -53 -9 -26 -9 -38 2 -58 12 -23 19 -25 75 -25
51 0 65 4 83 23 12 13 22 34 22 48 0 18 10 30 35 43 21 11 35 27 35 38 0 16 9
18 69 18 67 0 71 -1 95 -32 30 -39 102 -83 111 -68 4 6 -6 21 -21 33 -15 12
-33 27 -40 32 -15 12 -28 55 -17 55 4 0 32 -14 61 -30 46 -27 52 -34 52 -64 0
-18 7 -39 16 -47 8 -7 22 -25 30 -41 16 -31 35 -36 55 -12 10 12 10 20 1 35
-7 10 -12 21 -12 24 0 12 63 35 81 30 20 -7 20 -8 3 -26 -16 -18 -16 -22 -1
-54 17 -35 17 -35 86 -35 84 0 93 -8 80 -73 -12 -64 -14 -67 -57 -67 l-37 0
62 -59 c46 -43 71 -76 94 -127 86 -190 124 -264 134 -264 12 0 147 53 207 80
15 7 44 37 65 67 l36 53 -23 50 c-26 55 -33 58 -85 33 -34 -16 -36 -16 -50 3
-26 34 -67 115 -62 121 12 12 47 -10 67 -42 20 -33 23 -34 69 -28 43 5 50 3
55 -15 6 -17 17 -20 86 -24 76 -3 81 -4 118 -41 22 -21 39 -46 38 -55 -1 -13
8 -17 37 -17 35 0 37 -2 43 -35 18 -112 69 -253 94 -258 22 -4 50 49 50 95 0
41 22 83 45 83 8 0 19 16 26 35 9 25 20 36 42 41 15 3 32 15 36 26 4 11 22 26
40 34 30 12 32 12 40 -9 5 -12 23 -32 40 -45 24 -18 31 -30 31 -57 0 -33 2
-35 34 -35 32 0 35 -2 39 -37 3 -21 6 -54 6 -73 2 -60 13 -94 42 -130 16 -19
29 -47 29 -62 0 -18 9 -33 29 -47 40 -28 43 -27 36 17 -8 43 -36 87 -76 120
-24 19 -29 31 -29 65 0 23 5 49 10 57 7 12 14 10 40 -15 18 -17 38 -42 46 -58
10 -18 19 -25 28 -20 29 17 67 74 73 107 5 30 1 39 -31 70 -60 60 -40 134 32
120 24 -5 46 1 87 22 44 22 63 40 94 88 49 78 51 142 9 202 l-28 38 26 27 c22
23 23 27 9 33 -9 3 -29 6 -43 6 -48 0 -54 12 -25 53 30 42 39 45 48 17 5 -15
15 -20 39 -20 30 0 33 -3 49 -54 23 -72 37 -83 67 -51 18 19 21 31 16 56 -3
18 -13 40 -21 49 -23 25 9 80 60 103 62 29 82 53 100 122 14 52 15 71 6 116
-13 58 -22 69 -63 69 -16 0 -31 7 -37 18 -14 27 83 130 135 142 58 14 95 12
114 -5 24 -22 70 -1 70 30 0 33 23 49 51 35 18 -10 26 -8 50 9 17 12 30 17 34
11 7 -12 -49 -99 -76 -118 -31 -22 -26 -119 9 -176 15 -25 31 -46 35 -46 11 0
47 87 47 113 0 11 7 28 15 37 14 16 14 22 -1 60 -17 43 -17 43 6 62 17 14 36
19 68 17 38 -3 47 1 64 24 13 18 29 27 47 27 15 0 36 6 47 14 19 14 19 15 -3
44 -19 26 -20 34 -10 56 7 14 15 26 18 26 4 0 30 -16 59 -35 63 -43 76 -44 82
-6 4 29 1 31 -126 94 -174 87 -256 108 -270 70 -5 -12 -9 -14 -18 -5 -14 14
-102 16 -127 2 -14 -7 -24 -3 -46 20 -26 27 -34 30 -96 30 -47 0 -71 4 -76 14
-23 39 -222 74 -240 41 -5 -8 -34 -18 -73 -23 l-65 -8 -35 38 c-37 41 -34 40
-155 37 -22 -1 -69 4 -105 10 -84 15 -91 15 -115 6 -11 -4 -2 8 19 27 l40 35
-27 27 c-14 14 -37 26 -49 26 -13 0 -41 9 -63 20 -49 25 -56 25 -87 1z"/>
<path d="M4560 3960 l-25 -7 27 -8 c29 -7 52 1 43 16 -7 10 -10 10 -45 -1z"/>
<path d="M1548 3953 c7 -3 16 -2 19 1 4 3 -2 6 -13 5 -11 0 -14 -3 -6 -6z"/>
<path d="M1700 3950 c0 -5 9 -10 19 -10 11 0 23 5 26 10 4 6 -5 10 -19 10 -14
0 -26 -4 -26 -10z"/>
<path d="M4492 3939 c-26 -10 -21 -29 7 -29 24 0 47 26 29 33 -7 2 -23 1 -36
-4z"/>
<path d="M843 3933 c26 -2 68 -2 95 0 26 2 4 3 -48 3 -52 0 -74 -1 -47 -3z"/>
<path d="M4395 3888 c-63 -73 -65 -85 -22 -124 20 -19 41 -34 46 -34 6 0 8 20
4 49 -5 46 -4 50 26 72 33 24 41 49 16 49 -8 0 -15 7 -15 15 0 25 -17 17 -55
-27z"/>
<path d="M1180 3870 c0 -47 2 -50 25 -50 15 0 25 6 25 15 0 8 9 19 20 25 18
10 20 8 20 -25 0 -35 1 -35 42 -35 44 0 43 -16 -1 -22 -14 -1 -26 -8 -28 -14
-6 -18 44 -28 147 -28 73 -1 98 2 107 14 18 22 16 34 -16 74 -16 21 -31 42
-33 48 -3 7 -10 8 -18 3 -37 -23 -166 -5 -156 21 5 12 -44 24 -101 24 -33 0
-33 0 -33 -50z"/>
<path d="M1718 3903 c7 -3 16 -2 19 1 4 3 -2 6 -13 5 -11 0 -14 -3 -6 -6z"/>
<path d="M1613 3881 c-10 -10 -25 -21 -33 -23 -12 -5 -11 -7 5 -14 11 -4 23
-12 26 -17 4 -6 15 -7 24 -3 13 4 16 14 13 36 -3 16 0 32 6 34 6 2 3 5 -6 5
-10 1 -25 -7 -35 -18z"/>
<path d="M1725 3891 c-17 -3 -31 -14 -33 -24 -4 -21 11 -22 28 -2 7 8 21 15
31 15 10 0 21 5 24 10 7 11 -4 11 -50 1z"/>
<path d="M1820 3863 c-27 -22 -31 -31 -26 -57 4 -16 12 -34 19 -38 6 -5 48 -8
91 -7 75 2 80 1 92 -23 7 -14 22 -28 34 -31 15 -4 20 -13 20 -36 0 -27 -7 -36
-51 -64 l-51 -31 33 -9 c19 -5 41 -15 49 -22 8 -7 26 -16 40 -20 14 -4 35 -17
48 -28 l23 -22 -10 28 c-12 31 -6 34 21 10 17 -15 18 -14 18 23 0 22 -7 49
-15 61 -20 28 -3 39 29 18 22 -15 25 -14 51 8 l28 23 -51 33 c-45 29 -51 36
-46 60 4 19 0 32 -15 45 -28 25 -116 56 -161 56 -24 0 -39 6 -48 20 -17 28
-50 25 -64 -5 -16 -35 -31 -31 -23 5 8 37 5 37 -35 3z"/>
<path d="M1980 3880 c20 -13 63 -13 55 0 -3 6 -21 10 -38 10 -24 0 -28 -3 -17
-10z"/>
<path d="M1676 3805 c-18 -27 -14 -45 10 -45 19 0 18 -15 -2 -35 -15 -15 -18
-14 -40 6 -26 24 -57 19 -52 -8 3 -16 -6 -18 -79 -18 -44 0 -85 -3 -89 -7 -19
-19 -134 -3 -134 18 0 9 -12 14 -33 14 -18 0 -43 7 -55 16 l-22 15 0 -310 c0
-376 9 -351 -133 -351 -59 0 -97 -4 -105 -12 -7 -7 -12 -38 -12 -69 0 -38 -5
-61 -15 -69 -40 -33 -3 -240 46 -253 10 -3 19 -13 19 -22 0 -9 6 -31 14 -48 8
-18 20 -49 26 -69 6 -21 15 -38 20 -38 5 0 14 -16 20 -35 12 -37 50 -68 50
-41 0 8 -4 18 -10 21 -5 3 -19 35 -30 71 -23 76 -23 74 -12 74 5 0 17 -19 27
-42 10 -24 34 -62 53 -86 19 -24 39 -62 44 -85 17 -79 117 -157 201 -157 35 0
49 -6 72 -30 20 -21 38 -30 61 -30 27 0 36 -6 57 -42 39 -66 79 -100 113 -96
33 3 40 31 9 36 -10 3 -29 11 -42 19 -20 14 -22 20 -16 73 l6 59 -41 11 c-23
6 -44 15 -47 20 -3 5 1 26 10 46 13 31 13 40 3 50 -11 11 -22 8 -60 -16 -51
-32 -80 -36 -124 -20 l-26 10 7 87 c7 87 22 125 53 139 18 8 131 23 197 27 35
2 41 -1 53 -28 25 -59 37 -78 50 -83 10 -3 13 9 12 49 -3 102 -3 103 50 143
35 27 53 49 61 76 7 21 31 58 55 82 112 112 118 117 159 121 40 4 95 25 95 36
0 3 -14 15 -30 26 -33 22 -36 33 -18 82 11 31 15 33 61 33 37 0 58 7 88 28 46
32 50 59 13 93 -32 30 -49 63 -58 110 -8 46 -28 65 -46 44 -7 -8 -25 -15 -40
-15 -25 0 -29 5 -35 39 -5 31 -15 45 -47 66 -34 23 -46 26 -72 18 -26 -7 -32
-15 -39 -53 -5 -25 -13 -50 -19 -57 -6 -8 -5 -19 2 -33 14 -26 -3 -75 -30 -90
-11 -6 -20 -27 -24 -54 -4 -25 -11 -48 -15 -50 -10 -7 -46 42 -54 74 -6 23
-84 80 -139 102 -23 9 -58 45 -58 60 0 18 93 137 108 138 7 0 33 19 58 43 26
23 67 49 93 58 44 15 46 17 49 57 3 36 0 42 -17 42 -11 0 -34 -15 -52 -32
l-33 -33 -9 26 c-5 14 -22 31 -38 38 -22 10 -29 19 -29 41 0 15 -6 33 -14 39
-11 9 -17 6 -30 -14z"/>
<path d="M460 3798 c-25 -11 -47 -25 -48 -30 -2 -4 -20 -15 -39 -23 l-35 -15
23 -18 c27 -23 20 -52 -14 -52 -13 0 -32 -9 -42 -20 -18 -20 -17 -20 11 -20
16 0 35 -4 43 -9 15 -9 10 -15 -57 -67 -35 -28 -41 -60 -19 -107 9 -20 20 -27
47 -29 57 -5 51 -31 -14 -57 -30 -13 -62 -31 -71 -41 -17 -18 -16 -19 11 -10
16 5 46 12 67 15 26 4 51 19 83 50 25 25 49 45 54 45 4 0 20 18 35 40 15 22
34 40 41 40 19 0 18 -19 -1 -26 -9 -4 -20 -14 -25 -24 -8 -16 -6 -16 23 -6 59
21 57 14 57 207 l0 179 -42 -1 c-24 0 -63 -10 -88 -21z"/>
<path d="M1955 3730 c-3 -5 -1 -10 4 -10 6 0 11 5 11 10 0 6 -2 10 -4 10 -3 0
-8 -4 -11 -10z"/>
<path d="M4295 3690 c-3 -5 1 -10 9 -10 9 0 16 5 16 10 0 6 -4 10 -9 10 -6 0
-13 -4 -16 -10z"/>
<path d="M1997 3683 c-4 -3 -7 -11 -7 -17 0 -6 5 -5 12 2 6 6 9 14 7 17 -3 3
-9 2 -12 -2z"/>
<path d="M3051 3609 c-13 -5 -39 -6 -58 -3 l-35 7 20 -39 c25 -50 64 -66 110
-47 40 16 61 55 42 78 -14 17 -43 18 -79 4z"/>
<path d="M1796 3588 c-9 -12 -16 -28 -16 -34 0 -20 32 -25 50 -9 9 8 24 15 33
15 13 0 12 5 -7 25 -29 31 -40 31 -60 3z"/>
<path d="M847 3522 c-15 -37 -27 -71 -27 -75 0 -4 27 -7 60 -7 33 0 60 4 60
10 0 18 -52 140 -59 140 -5 0 -20 -30 -34 -68z"/>
<path d="M7627 3483 c-4 -3 -7 -28 -7 -55 l0 -48 163 2 c113 2 132 3 65 5 -54
2 -98 8 -98 13 0 6 43 11 98 12 l97 2 -85 3 c-123 5 -131 17 -15 23 l100 6
-92 2 c-126 3 -133 22 -8 22 62 0 94 4 90 10 -7 11 -297 14 -308 3z m102 -23
c-8 -6 -8 -9 0 -14 6 -4 11 -13 11 -19 -1 -7 -10 -1 -21 12 -17 21 -22 22 -30
10 -6 -10 -9 -10 -9 -1 0 19 -14 14 -29 -10 -13 -21 -13 -22 3 -9 26 22 29 7
2 -18 l-23 -22 0 39 0 39 54 0 c30 0 49 -4 42 -7z m-6 -40 c23 -27 22 -37 -2
-16 -11 10 -25 15 -30 11 -12 -7 -15 8 -4 18 10 11 17 8 36 -13z m-43 -20 c0
-5 -4 -10 -10 -10 -5 0 -10 5 -10 10 0 6 5 10 10 10 6 0 10 -4 10 -10z m30 0
c0 -5 -4 -10 -10 -10 -5 0 -10 5 -10 10 0 6 5 10 10 10 6 0 10 -4 10 -10z"/>
<path d="M8310 3423 c-41 -16 -39 -50 4 -68 19 -8 37 -19 41 -25 10 -16 -26
-24 -47 -11 -25 15 -35 7 -18 -14 16 -19 64 -20 80 0 19 23 7 49 -30 61 -19 6
-36 16 -38 23 -6 17 26 25 43 11 9 -7 19 -10 23 -6 4 4 -2 14 -12 22 -21 15
-23 15 -46 7z"/>
<path d="M8150 3367 c0 -59 12 -77 50 -77 38 0 50 18 50 77 0 69 -18 69 -22 1
-3 -49 -5 -53 -28 -53 -23 0 -25 4 -28 53 -4 68 -22 68 -22 -1z"/>
<path d="M8437 3413 c-3 -5 -15 -33 -26 -63 -21 -55 -19 -79 3 -47 7 9 23 17
36 17 13 0 29 -8 36 -17 23 -33 24 -7 1 52 -22 56 -39 76 -50 58z m33 -65 c0
-4 -9 -8 -21 -8 -15 0 -19 4 -15 16 3 9 6 21 6 27 1 13 30 -22 30 -35z"/>
<path d="M3360 3399 c0 -5 5 -7 10 -4 6 3 10 8 10 11 0 2 -4 4 -10 4 -5 0 -10
-5 -10 -11z"/>
<path d="M9455 3394 c-16 -12 -17 -14 -2 -14 13 0 17 -9 17 -35 0 -19 5 -35
10 -35 12 0 14 86 2 94 -4 2 -16 -2 -27 -10z"/>
<path d="M9522 3398 c-19 -19 -15 -76 6 -87 28 -15 52 5 52 42 0 33 -15 57
-35 57 -6 0 -16 -5 -23 -12z m46 -47 c-4 -32 -34 -40 -43 -12 -3 11 -1 30 5
41 9 17 14 19 26 9 8 -7 14 -24 12 -38z"/>
<path d="M9610 3391 c-14 -28 -12 -57 6 -75 33 -34 79 27 54 73 -14 26 -46 27
-60 2z m48 -35 c-2 -20 -9 -32 -20 -34 -14 -3 -18 4 -18 31 0 39 6 48 27 40 9
-4 13 -16 11 -37z"/>
<path d="M9730 3400 c0 -5 9 -10 20 -10 11 0 23 0 27 -1 4 0 9 4 11 10 2 6
-10 11 -27 11 -17 0 -31 -4 -31 -10z"/>
<path d="M9827 3403 c-16 -15 -7 -55 13 -60 16 -4 18 -8 9 -19 -7 -9 -7 -14
-1 -14 14 0 42 46 42 69 0 25 -45 43 -63 24z m42 -39 c-12 -15 -39 -8 -39 11
0 18 22 25 38 12 9 -7 9 -13 1 -23z"/>
<path d="M9917 3403 c-14 -13 -6 -20 18 -15 32 6 32 -9 -1 -47 l-26 -31 34 1
c18 1 25 3 16 6 -15 4 -15 6 0 32 8 15 13 35 9 44 -6 17 -38 23 -50 10z"/>
<path d="M10166 3364 c-16 -19 -26 -37 -23 -40 2 -3 33 -4 68 -2 l63 3 -33 38
c-18 20 -36 37 -40 36 -3 0 -19 -16 -35 -35z"/>
<path d="M445 3370 c-10 -11 -14 -20 -9 -20 5 0 15 9 22 20 7 11 11 20 9 20
-2 0 -12 -9 -22 -20z"/>
<path d="M9756 3372 c-3 -6 1 -12 9 -16 18 -7 20 -36 2 -36 -7 0 -18 5 -25 12
-8 8 -12 8 -12 1 0 -6 6 -16 14 -22 17 -15 56 2 56 23 0 18 -37 50 -44 38z"/>
<path d="M7698 3353 c45 -2 119 -2 165 0 45 1 8 3 -83 3 -91 0 -128 -2 -82 -3z"/>
<path d="M3267 3343 c-4 -3 -7 -11 -7 -17 0 -6 5 -5 12 2 6 6 9 14 7 17 -3 3
-9 2 -12 -2z"/>
<path d="M3296 3322 c-21 -41 -20 -45 10 -81 18 -22 23 -35 16 -44 -5 -6 -12
-28 -15 -49 -5 -31 -2 -37 16 -42 12 -3 38 0 58 6 28 8 38 17 42 37 3 16 0 29
-9 34 -18 10 -54 80 -54 105 0 10 -11 29 -24 41 l-24 23 -16 -30z"/>
<path d="M7698 3323 c45 -2 119 -2 165 0 45 1 8 3 -83 3 -91 0 -128 -2 -82 -3z"/>
<path d="M9690 3321 c0 -5 5 -13 10 -16 6 -3 10 -2 10 4 0 5 -4 13 -10 16 -5
3 -10 2 -10 -4z"/>
<path d="M7620 3290 c0 -6 60 -10 160 -10 100 0 160 4 160 10 0 6 -60 10 -160
10 -100 0 -160 -4 -160 -10z"/>
<path d="M7698 3253 c45 -2 119 -2 165 0 45 1 8 3 -83 3 -91 0 -128 -2 -82 -3z"/>
<path d="M3245 3240 c-29 -11 -47 -36 -47 -65 0 -34 4 -37 36 -29 34 8 46 31
38 71 -6 25 -10 29 -27 23z"/>
<path d="M6180 3148 c0 -24 7 -52 15 -62 8 -11 18 -41 21 -68 5 -38 10 -48 25
-48 29 0 25 60 -6 106 -14 21 -28 54 -31 76 -9 51 -24 48 -24 -4z"/>
<path d="M2262 3106 c-23 -21 -42 -42 -42 -46 0 -12 119 -39 126 -29 7 12 -6
52 -22 64 -7 5 -14 19 -16 30 -3 17 -8 15 -46 -19z"/>
<path d="M7840 2855 l0 -115 50 0 50 0 0 115 0 115 -50 0 -50 0 0 -115z"/>
<path d="M6227 2908 c-2 -13 -8 -31 -12 -40 -12 -29 41 -23 72 8 26 26 26 27
8 40 -29 22 -62 18 -68 -8z"/>
<path d="M8380 2850 c0 -40 4 -70 10 -70 6 0 10 30 10 70 0 40 -4 70 -10 70
-6 0 -10 -30 -10 -70z"/>
<path d="M8150 2845 c0 -37 4 -65 10 -65 6 0 10 28 10 65 0 37 -4 65 -10 65
-6 0 -10 -28 -10 -65z"/>
<path d="M8200 2873 c-10 -12 -11 -18 -2 -21 7 -2 12 -19 12 -38 0 -49 17 -42
22 9 7 65 -3 82 -32 50z"/>
<path d="M9524 2875 c-4 -9 -4 -19 0 -22 3 -3 1 -12 -5 -20 -14 -16 5 -43 31
-43 28 0 39 22 31 60 -5 26 -13 36 -29 38 -13 2 -25 -3 -28 -13z m41 -4 c7
-12 -12 -24 -25 -16 -11 7 -4 25 10 25 5 0 11 -4 15 -9z m1 -42 c10 -17 -13
-36 -27 -22 -12 12 -4 33 11 33 5 0 12 -5 16 -11z"/>
<path d="M9619 2859 c-17 -24 -20 -36 -12 -48 14 -21 53 -20 67 2 9 15 7 21
-13 36 -13 10 -21 23 -17 30 16 25 -4 9 -25 -20z m39 -36 c-2 -10 -10 -18 -18
-18 -8 0 -16 8 -18 18 -2 12 3 17 18 17 15 0 20 -5 18 -17z"/>
<path d="M9748 2859 c-23 -39 -23 -49 1 -49 11 0 22 -6 24 -12 10 -25 23 10
19 52 -5 48 -21 51 -44 9z m18 -36 c-11 -11 -19 6 -11 24 8 17 8 17 12 0 3
-10 2 -21 -1 -24z"/>
<path d="M9827 2883 c-14 -13 -6 -43 14 -53 16 -9 18 -14 8 -26 -6 -8 -7 -14
-2 -14 16 0 47 66 40 84 -6 16 -47 22 -60 9z m51 -20 c5 -17 -26 -29 -40 -15
-6 6 -7 15 -3 22 9 14 37 9 43 -7z"/>
<path d="M9916 2878 c-3 -7 -4 -29 -3 -48 2 -32 5 -35 32 -35 29 0 30 2 30 45
0 42 -2 45 -28 48 -16 2 -29 -2 -31 -10z m44 -13 c0 -8 -7 -15 -15 -15 -8 0
-15 7 -15 15 0 8 7 15 15 15 8 0 15 -7 15 -15z m0 -45 c0 -23 -25 -27 -33 -6
-7 16 1 26 20 26 7 0 13 -9 13 -20z"/>
<path d="M10179 2852 l-33 -37 58 -3 c32 -2 61 -1 63 2 3 3 -8 21 -25 40 l-31
35 -32 -37z"/>
<path d="M3570 2870 c0 -5 5 -10 11 -10 5 0 7 5 4 10 -3 6 -8 10 -11 10 -2 0
-4 -4 -4 -10z"/>
<path d="M8272 2858 c-34 -34 4 -101 46 -80 9 5 23 7 30 5 10 -4 12 6 10 37
-3 41 -5 43 -38 47 -20 2 -41 -2 -48 -9z m61 -22 c8 -21 -17 -50 -37 -43 -16
6 -22 38 -9 50 11 12 41 7 46 -7z"/>
<path d="M8430 2861 c0 -5 7 -25 15 -44 8 -20 15 -43 15 -52 0 -8 -7 -15 -15
-15 -8 0 -15 -4 -15 -10 0 -14 26 -12 37 3 5 6 18 32 28 57 9 25 19 51 22 58
3 6 1 12 -5 12 -5 0 -16 -17 -25 -37 l-14 -37 -14 37 c-12 34 -29 50 -29 28z"/>
<path d="M3570 2811 c0 -11 5 -23 10 -26 6 -3 10 3 10 14 0 11 -4 23 -10 26
-5 3 -10 -3 -10 -14z"/>
<path d="M6212 2765 c-7 -25 -16 -44 -21 -41 -4 3 -14 -6 -21 -19 -8 -15 -22
-25 -35 -25 -20 0 -55 -27 -55 -43 0 -4 9 -7 21 -7 11 0 29 -4 39 -10 14 -7
30 -3 67 17 26 15 51 32 56 37 4 6 6 38 5 71 -3 52 -6 60 -23 63 -17 2 -23 -6
-33 -43z"/>
<path d="M9690 2800 c0 -5 5 -10 10 -10 6 0 10 5 10 10 0 6 -4 10 -10 10 -5 0
-10 -4 -10 -10z"/>
<path d="M3665 2750 c3 -5 14 -10 23 -10 15 0 15 2 2 10 -20 13 -33 13 -25 0z"/>
<path d="M3395 2710 c-3 -5 -33 -10 -66 -10 -43 0 -64 -5 -76 -18 -49 -49 -73
-86 -73 -112 0 -21 -8 -33 -33 -49 -69 -42 -77 -59 -82 -162 -3 -62 -11 -105
-22 -126 -14 -26 -15 -38 -5 -70 6 -21 14 -48 17 -61 7 -25 116 -147 146 -163
11 -6 27 -5 43 1 17 6 36 6 56 -1 24 -9 35 -8 53 3 12 8 43 18 68 21 39 5 50
3 64 -13 10 -11 25 -20 34 -20 9 0 27 -7 39 -16 19 -13 22 -24 22 -86 0 -66 3
-76 39 -132 47 -74 60 -144 37 -199 -8 -20 -18 -56 -21 -81 -6 -37 -3 -50 14
-75 15 -21 21 -44 21 -83 0 -35 10 -78 30 -128 16 -41 29 -85 30 -98 0 -35 28
-82 49 -82 10 0 32 7 47 15 16 8 38 15 49 15 44 1 66 14 102 63 62 81 73 101
73 124 0 13 11 30 25 39 29 19 41 52 26 67 -18 18 -14 24 55 98 l66 70 -6 82
c-3 45 -9 107 -12 138 l-6 56 104 109 c100 104 105 112 122 178 9 38 15 70 13
72 -2 2 -32 -3 -68 -10 -65 -14 -89 -8 -89 20 0 7 -16 26 -35 41 -19 15 -35
34 -35 41 0 8 -18 51 -39 95 -22 45 -51 110 -65 145 -39 99 -152 188 -210 166
-10 -4 -16 -1 -16 9 0 35 -66 36 -82 2 -7 -16 -19 -25 -34 -25 -12 0 -31 11
-42 25 -11 14 -28 25 -38 25 -29 1 -74 46 -80 80 l-6 30 -99 0 c-54 0 -101 -4
-104 -10z"/>
<path d="M3875 2680 c3 -5 12 -7 20 -3 21 7 19 13 -6 13 -11 0 -18 -4 -14 -10z"/>
<path d="M6056 2613 c-13 -13 -6 -63 9 -63 10 0 15 10 15 29 0 30 -12 46 -24
34z"/>
<path d="M7620 2335 l0 -115 160 0 160 0 0 115 0 115 -160 0 -160 0 0 -115z
m140 55 c0 -5 -4 -10 -10 -10 -5 0 -10 5 -10 10 0 6 5 10 10 10 6 0 10 -4 10
-10z m-42 -30 c12 0 13 -3 5 -11 -6 -6 -9 -17 -7 -24 9 -24 -42 -12 -53 13 -9
17 -8 22 3 22 8 0 18 8 22 18 6 16 7 16 10 0 2 -10 11 -18 20 -18z m62 0 c0
-5 -4 -10 -10 -10 -5 0 -10 5 -10 10 0 6 5 10 10 10 6 0 10 -4 10 -10z m5 -40
c-3 -5 -10 -10 -16 -10 -5 0 -9 5 -9 10 0 6 7 10 16 10 8 0 12 -4 9 -10z m-25
-29 c0 -6 -4 -13 -10 -16 -5 -3 -10 1 -10 9 0 9 5 16 10 16 6 0 10 -4 10 -9z"/>
<path d="M1635 2400 c-9 -14 20 -23 48 -16 24 6 87 -26 87 -44 0 -5 16 -10 35
-10 19 0 35 5 35 10 0 6 -4 10 -10 10 -5 0 -32 14 -58 30 -50 31 -124 41 -137
20z"/>
<path d="M5892 2397 c-13 -16 -26 -67 -17 -67 10 0 44 43 45 57 0 18 -16 24
-28 10z"/>
<path d="M8290 2330 c0 -40 4 -70 10 -70 6 0 10 15 10 34 0 36 19 53 39 33 6
-6 11 -24 11 -39 0 -15 5 -28 10 -28 11 0 13 33 4 68 -5 16 -14 22 -35 22 -24
0 -29 4 -29 25 0 14 -4 25 -10 25 -6 0 -10 -30 -10 -70z"/>
<path d="M8402 2389 c2 -6 8 -10 13 -10 5 0 11 4 13 10 2 6 -4 11 -13 11 -9 0
-15 -5 -13 -11z"/>
<path d="M8157 2372 c-25 -27 -22 -78 5 -96 31 -22 71 -20 93 4 16 17 16 20 2
20 -9 0 -19 -4 -22 -10 -9 -14 -48 -13 -63 2 -20 20 -14 56 12 73 23 15 56 12
56 -6 0 -5 7 -9 15 -9 21 0 19 17 -4 30 -30 16 -76 12 -94 -8z"/>
<path d="M9574 2372 c-5 -4 -11 -26 -12 -49 -1 -34 3 -43 19 -48 29 -9 48 11
46 48 -4 51 -24 69 -53 49z m34 -23 c-2 -6 -8 -10 -13 -10 -5 0 -11 4 -13 10
-2 6 4 11 13 11 9 0 15 -5 13 -11z m2 -44 c0 -8 -6 -15 -14 -15 -17 0 -28 14
-19 24 12 12 33 6 33 -9z"/>
<path d="M9662 2364 c-7 -8 -8 -14 -2 -14 5 0 10 -18 10 -41 0 -24 4 -38 10
-34 12 7 14 92 3 98 -5 3 -14 -1 -21 -9z"/>
<path d="M9755 2370 c-3 -5 4 -10 16 -10 18 0 19 -2 9 -15 -10 -12 -9 -16 4
-21 9 -3 16 -13 16 -21 0 -11 -7 -13 -25 -9 -30 8 -34 -10 -4 -19 31 -10 58
19 42 44 -6 10 -9 28 -6 40 4 17 1 21 -20 21 -14 0 -29 -4 -32 -10z"/>
<path d="M9856 2343 l-26 -38 25 -3 c15 -2 25 -10 25 -20 0 -12 3 -13 12 -4
13 13 12 82 -1 95 -5 5 -21 -8 -35 -30z m24 -13 c0 -11 -7 -20 -15 -20 -13 0
-13 3 -3 20 7 11 14 20 15 20 2 0 3 -9 3 -20z"/>
<path d="M9935 2356 c-12 -18 -13 -30 -5 -50 20 -53 70 -41 70 18 0 56 -38 74
-65 32z m48 -10 c9 -24 -4 -57 -22 -54 -29 6 -27 68 3 68 7 0 16 -6 19 -14z"/>
<path d="M10150 2373 c0 -5 14 -24 30 -43 l30 -35 30 35 c16 19 30 38 30 43 0
4 -27 7 -60 7 -33 0 -60 -3 -60 -7z"/>
<path d="M8400 2305 c0 -25 5 -45 10 -45 6 0 10 20 10 45 0 25 -4 45 -10 45
-5 0 -10 -20 -10 -45z"/>
<path d="M8450 2303 c0 -23 5 -43 10 -43 6 0 10 13 10 29 0 31 22 57 40 46 5
-3 10 -22 10 -41 0 -19 5 -34 10 -34 12 0 13 59 2 77 -4 7 -25 12 -45 11 -37
-1 -37 -2 -37 -45z"/>
<path d="M8572 2338 c-16 -16 -15 -53 1 -67 8 -6 30 -10 50 -9 36 1 37 2 37
43 0 41 0 42 -38 43 -21 1 -44 -4 -50 -10z m58 -13 c17 -20 5 -45 -20 -45 -11
0 -23 7 -26 15 -6 15 11 45 26 45 4 0 13 -7 20 -15z"/>
<path d="M1872 2306 l-24 -13 31 -13 c28 -11 34 -10 51 5 11 10 17 22 14 26
-8 13 -45 10 -72 -5z"/>
<path d="M1760 2290 c0 -5 12 -10 28 -10 21 0 24 2 12 10 -20 13 -40 13 -40 0z"/>
<path d="M9710 2280 c0 -5 5 -10 10 -10 6 0 10 5 10 10 0 6 -4 10 -10 10 -5 0
-10 -4 -10 -10z"/>
<path d="M5651 2266 c-7 -9 -8 -17 -2 -20 14 -9 41 4 41 20 0 18 -24 18 -39 0z"/>
<path d="M5878 2208 c-3 -29 0 -49 10 -60 25 -30 32 -21 32 42 0 52 -2 60 -19
60 -15 0 -20 -9 -23 -42z"/>
<path d="M5950 2131 c0 -11 5 -23 10 -26 6 -4 10 5 10 19 0 14 -4 26 -10 26
-5 0 -10 -9 -10 -19z"/>
<path d="M1833 2120 c-22 -10 -44 -27 -47 -38 -4 -11 -16 -22 -28 -25 -16 -5
-19 -10 -13 -29 20 -65 18 -84 -20 -137 -34 -47 -37 -56 -31 -95 4 -27 3 -47
-4 -51 -16 -10 -12 -37 10 -65 11 -14 20 -36 20 -49 0 -35 61 -118 130 -179
57 -51 59 -53 65 -115 5 -43 2 -91 -9 -150 -11 -58 -18 -158 -20 -301 -2 -117
-7 -219 -11 -225 -8 -15 12 -99 30 -121 7 -8 15 -23 19 -34 4 -13 12 -17 29
-12 12 3 28 6 35 6 8 0 12 9 10 23 -1 13 8 36 21 53 18 23 22 37 18 72 -4 34
1 53 19 85 13 23 24 52 24 65 0 12 5 22 10 22 6 0 15 11 21 23 6 13 31 34 55
45 44 22 44 22 38 62 -6 38 -5 40 19 40 34 0 124 100 138 155 20 74 29 85 94
126 59 38 66 46 80 93 9 28 20 80 26 116 8 53 15 70 39 90 27 22 30 31 30 78
0 51 -1 52 -39 68 -21 8 -41 23 -44 33 -3 13 -18 20 -49 25 -29 4 -54 16 -68
31 -17 18 -34 25 -60 25 -44 0 -60 14 -60 56 0 39 -34 71 -121 115 -41 20 -61
37 -65 53 -6 25 -17 30 -99 42 -27 4 -59 13 -69 20 -15 10 -23 11 -34 2 -11
-10 -17 -9 -27 5 -14 20 -10 20 -62 -3z"/>
<path d="M5900 2100 c0 -5 7 -10 15 -10 8 0 15 5 15 10 0 6 -7 10 -15 10 -8 0
-15 -4 -15 -10z"/>
<path d="M5990 2081 c0 -5 -7 -17 -16 -25 -8 -9 -14 -22 -12 -28 3 -8 15 -2
32 15 15 15 24 32 21 37 -8 13 -25 13 -25 1z"/>
<path d="M5852 2058 c-18 -24 -24 -58 -10 -58 12 0 48 48 48 64 0 11 -27 6
-38 -6z"/>
<path d="M5050 1992 c0 -27 15 -52 32 -52 13 0 9 55 -4 68 -19 19 -28 14 -28
-16z"/>
<path d="M5984 2006 c-3 -8 -14 -18 -25 -21 -10 -4 -19 -13 -19 -21 0 -11 6
-13 20 -9 11 4 20 2 20 -4 0 -6 9 -11 21 -11 17 0 20 5 17 37 -3 38 -24 56
-34 29z"/>
<path d="M7620 1910 l0 -30 160 0 160 0 0 30 0 30 -160 0 -160 0 0 -30z"/>
<path d="M5779 1894 c-24 -20 -48 -42 -54 -49 -5 -7 -23 -16 -38 -19 -25 -6
-28 -10 -22 -33 18 -75 31 -90 79 -97 25 -4 51 -4 56 -1 6 4 21 28 35 55 21
42 23 52 12 79 -10 27 -9 37 5 61 14 25 14 29 1 34 -24 10 -29 8 -74 -30z"/>
<path d="M5391 1883 c12 -21 33 -47 45 -58 13 -11 28 -39 35 -63 14 -47 67
-102 99 -102 27 0 25 24 -7 79 -44 76 -154 181 -188 181 -4 0 4 -17 16 -37z"/>
<path d="M8150 1865 c-19 -23 -7 -49 30 -61 19 -6 36 -16 38 -23 6 -17 -28
-26 -50 -12 -27 16 -38 3 -14 -15 26 -18 51 -18 71 2 19 19 16 44 -5 54 -62
29 -71 43 -32 48 12 2 22 -1 22 -7 0 -6 5 -11 10 -11 16 0 11 27 -6 34 -26 10
-51 7 -64 -9z"/>
<path d="M8500 1870 c0 -5 7 -10 15 -10 8 0 15 5 15 10 0 6 -7 10 -15 10 -8 0
-15 -4 -15 -10z"/>
<path d="M9516 1834 c-26 -39 -18 -69 19 -69 24 0 31 5 33 23 3 17 -2 25 -17
29 -24 6 -26 14 -9 31 8 8 8 12 1 12 -6 0 -18 -12 -27 -26z m42 -41 c5 -17
-26 -29 -40 -15 -6 6 -7 15 -3 22 9 14 37 9 43 -7z"/>
<path d="M9610 1828 c-25 -41 -25 -48 -1 -48 11 0 23 -5 27 -11 12 -19 20 7
16 51 -5 48 -16 51 -42 8z m30 -12 c0 -15 -18 -31 -26 -23 -7 7 7 37 17 37 5
0 9 -6 9 -14z"/>
<path d="M9718 1835 c-22 -49 25 -98 60 -63 7 7 12 24 12 38 0 51 -52 69 -72
25z m47 -26 c0 -24 -5 -34 -15 -34 -16 0 -25 37 -16 62 10 26 31 8 31 -28z"/>
<path d="M9816 1838 c-9 -36 -8 -39 19 -32 21 5 25 3 25 -15 0 -23 -19 -28
-39 -8 -11 10 -13 9 -9 -3 3 -9 17 -15 34 -15 24 0 29 4 29 25 0 18 -6 26 -22
28 -13 2 -23 8 -23 13 0 5 10 14 23 19 21 9 21 9 -4 9 -19 1 -28 -5 -33 -21z"/>
<path d="M9907 1854 c-14 -14 -7 -44 12 -56 15 -9 17 -15 9 -25 -7 -8 -7 -13
0 -13 16 0 43 49 40 73 -2 15 -11 23 -28 25 -14 2 -29 0 -33 -4z m49 -15 c9
-16 -12 -33 -31 -25 -14 5 -15 9 -5 21 15 18 26 19 36 4z"/>
<path d="M10171 1820 l-32 -40 66 0 66 0 -32 40 c-18 22 -33 40 -34 40 -1 0
-16 -18 -34 -40z"/>
<path d="M7660 1815 c0 -25 14 -33 25 -15 3 6 12 10 18 10 7 0 6 -4 -3 -11
-13 -9 -13 -10 0 -6 23 6 26 47 3 47 -15 0 -16 -2 -3 -10 9 -6 10 -10 3 -10
-6 0 -15 5 -18 10 -11 18 -25 10 -25 -15z"/>
<path d="M7732 1815 c0 -16 2 -22 5 -12 2 9 2 23 0 30 -3 6 -5 -1 -5 -18z"/>
<path d="M8260 1769 c0 -39 4 -69 10 -69 6 0 10 11 10 25 0 22 3 25 24 19 26
-6 56 17 56 44 0 31 -18 46 -59 48 l-41 2 0 -69z m75 31 c8 -25 -1 -40 -25
-40 -19 0 -36 32 -25 50 11 17 43 11 50 -10z"/>
<path d="M8392 1828 c-17 -17 -15 -63 3 -78 9 -7 26 -9 45 -5 28 6 30 10 30
48 0 40 -1 42 -33 44 -18 2 -39 -3 -45 -9z m53 -38 c0 -29 -32 -41 -41 -16 -9
24 4 48 23 44 12 -2 18 -12 18 -28z"/>
<path d="M8507 1833 c-11 -10 -8 -83 3 -83 6 0 10 20 10 45 0 46 -2 50 -13 38z"/>
<path d="M8555 1831 c-9 -9 -5 -81 4 -81 6 0 11 15 13 33 2 24 8 32 23 32 15
0 21 -8 23 -32 4 -40 22 -44 22 -5 0 40 -15 57 -50 57 -17 1 -33 -1 -35 -4z"/>
<path d="M5944 1812 c-35 -3 -43 -7 -57 -38 -10 -19 -17 -45 -17 -57 0 -31 11
-67 20 -67 5 0 6 9 3 20 -3 11 0 20 5 20 6 0 16 -9 22 -20 17 -32 33 -24 26
13 -4 17 -7 42 -8 55 0 15 -6 22 -19 22 -10 0 -19 4 -19 9 0 11 25 21 55 21
13 0 27 5 30 11 9 14 7 14 -41 11z"/>
<path d="M6050 1794 c0 -14 4 -23 10 -19 6 3 10 15 10 26 0 10 -4 19 -10 19
-5 0 -10 -12 -10 -26z"/>
<path d="M9680 1771 c0 -6 5 -13 10 -16 6 -3 10 1 10 9 0 9 -4 16 -10 16 -5 0
-10 -4 -10 -9z"/>
<path d="M7622 1738 l3 -33 155 0 155 0 3 33 3 32 -161 0 -161 0 3 -32z"/>
<path d="M5580 1736 c0 -9 5 -16 10 -16 6 0 10 4 10 9 0 6 -4 13 -10 16 -5 3
-10 -1 -10 -9z"/>
<path d="M5990 1730 c0 -5 5 -10 11 -10 5 0 7 5 4 10 -3 6 -8 10 -11 10 -2 0
-4 -4 -4 -10z"/>
<path d="M6161 1711 c13 -38 23 -45 81 -61 59 -15 72 -30 63 -70 -5 -24 -3
-30 11 -30 9 0 32 -9 51 -21 l34 -21 20 26 c26 33 59 33 89 1 15 -16 34 -25
53 -25 l29 0 -31 29 c-18 17 -31 39 -31 53 0 19 -16 33 -80 72 l-80 49 -75 -6
c-67 -6 -77 -5 -95 13 -11 11 -27 20 -34 20 -12 0 -13 -6 -5 -29z"/>
<path d="M5600 1622 c0 -23 233 -73 252 -54 8 8 2 10 -18 10 -16 -1 -48 9 -71
21 -48 24 -163 41 -163 23z"/>
<path d="M6562 1618 c5 -15 48 -18 48 -3 0 6 -11 11 -26 13 -18 3 -25 0 -22
-10z"/>
<path d="M5885 1570 c-8 -13 25 -13 45 0 12 8 9 10 -12 10 -15 0 -30 -4 -33
-10z"/>
<path d="M5965 1561 c-10 -18 15 -22 42 -7 l28 15 -32 1 c-17 0 -34 -4 -38 -9z"/>
<path d="M5868 1533 c7 -3 16 -2 19 1 4 3 -2 6 -13 5 -11 0 -14 -3 -6 -6z"/>
<path d="M4400 1492 c0 -8 -23 -35 -52 -62 -39 -36 -52 -56 -55 -81 -2 -19 -6
-56 -9 -84 -4 -35 -1 -56 9 -69 14 -19 16 -18 46 24 17 24 38 69 46 99 9 31
20 70 25 87 13 38 12 65 0 84 -7 11 -10 12 -10 2z"/>
<path d="M6123 1428 c-20 -20 -25 -20 -48 -8 -24 13 -29 11 -83 -27 -31 -22
-107 -65 -167 -96 -129 -66 -151 -84 -164 -135 -15 -60 -35 -238 -28 -256 8
-20 46 -20 71 -1 12 9 41 15 70 15 31 0 74 10 111 25 71 29 105 31 148 9 17
-10 40 -17 50 -18 11 -1 29 -21 45 -51 l27 -50 109 -3 109 -3 40 38 c51 50
122 149 147 207 24 52 24 49 -47 157 -28 41 -51 93 -64 142 -12 42 -24 77 -28
77 -3 0 -19 -20 -35 -45 -33 -54 -61 -75 -97 -75 -21 0 -29 7 -38 30 -5 17 -8
37 -5 44 3 9 -11 19 -45 30 -61 20 -52 20 -78 -6z"/>
<path d="M7615 1410 c-3 -5 -3 -39 1 -75 l7 -65 157 0 157 0 7 65 c4 36 4 70
1 75 -8 13 -322 13 -330 0z"/>
<path d="M8156 1338 c-35 -50 -8 -108 51 -108 32 0 63 26 63 53 0 12 -9 17
-30 17 -16 0 -30 -4 -30 -10 0 -5 10 -10 21 -10 18 0 19 -2 9 -15 -26 -32 -80
-12 -80 30 0 12 5 26 12 33 15 15 54 16 63 2 3 -5 13 -10 22 -10 14 0 14 3 -2
20 -25 28 -79 27 -99 -2z"/>
<path d="M9656 1335 c-19 -19 -21 -66 -4 -83 37 -37 85 18 58 66 -19 32 -34
37 -54 17z m42 -43 c3 -27 0 -32 -17 -32 -17 0 -21 6 -21 36 0 28 3 35 18 32
11 -2 18 -14 20 -36z"/>
<path d="M9781 1341 c-8 -5 -12 -18 -8 -30 3 -12 1 -24 -4 -27 -14 -8 9 -44
29 -44 29 0 41 20 35 59 -8 46 -24 60 -52 42z m39 -20 c0 -14 -18 -23 -30 -16
-6 4 -8 11 -5 16 8 12 35 12 35 0z m-4 -42 c3 -6 2 -15 -2 -19 -12 -12 -38 5
-30 19 9 14 23 14 32 0z"/>
<path d="M9557 1314 c-4 -21 -1 -25 14 -21 25 7 44 -17 25 -32 -10 -8 -16 -9
-21 -1 -3 5 -11 10 -18 10 -7 0 -5 -6 5 -16 22 -23 58 -10 58 21 0 18 -7 26
-26 31 -27 7 -22 19 11 27 13 3 10 5 -11 6 -26 1 -32 -3 -37 -25z"/>
<path d="M9872 1333 l28 -4 -21 -41 c-11 -22 -18 -43 -15 -46 8 -7 10 -4 34
51 l21 47 -37 -1 c-30 -2 -32 -3 -10 -6z"/>
<path d="M9940 1330 c-10 -6 -11 -10 -2 -10 7 0 12 -14 12 -34 0 -19 5 -38 10
-41 6 -4 10 13 10 44 0 52 -4 58 -30 41z"/>
<path d="M10172 1304 l-33 -39 36 -3 c19 -2 49 -2 66 0 l31 3 -34 39 -34 39
-32 -39z"/>
<path d="M8302 1308 c-7 -7 -12 -21 -12 -33 0 -12 5 -26 12 -33 15 -15 64 -16
73 -2 4 6 -6 9 -26 8 -18 -2 -34 2 -36 10 -3 8 7 12 31 12 23 0 36 5 36 13 0
19 -21 37 -45 37 -12 0 -26 -5 -33 -12z m56 -16 c2 -7 -7 -12 -22 -12 -27 0
-35 15 -13 23 17 7 30 3 35 -11z"/>
<path d="M8400 1273 c0 -23 5 -43 10 -43 6 0 10 13 10 29 0 18 8 34 23 44 22
15 22 15 -10 15 -32 -1 -33 -2 -33 -45z"/>
<path d="M8480 1275 c0 -25 5 -45 10 -45 6 0 10 15 10 33 0 19 3 37 7 40 12
13 33 -15 33 -44 0 -16 5 -29 10 -29 6 0 10 15 10 33 0 19 3 37 7 40 12 13 33
-15 33 -44 0 -16 5 -29 10 -29 12 0 13 59 2 76 -4 7 -35 12 -69 13 l-63 1 0
-45z"/>
<path d="M8652 1308 c-16 -16 -15 -53 1 -67 8 -6 30 -10 50 -9 36 1 37 2 37
43 0 41 0 42 -38 43 -21 1 -44 -4 -50 -10z m68 -33 c0 -21 -34 -37 -48 -23
-26 26 -2 64 30 47 10 -5 18 -16 18 -24z"/>
<path d="M8770 1274 c0 -24 5 -44 10 -44 6 0 10 16 10 35 0 28 4 35 20 35 16
0 20 -7 20 -35 0 -19 5 -35 11 -35 6 0 9 17 7 43 -3 41 -4 42 -40 43 l-38 1 0
-43z"/>
<path d="M8870 1315 c0 -3 7 -22 15 -42 19 -46 19 -73 -1 -73 -8 0 -13 -4 -9
-10 16 -26 52 23 79 108 11 34 -10 27 -23 -8 -5 -16 -13 -30 -16 -30 -3 0 -11
14 -16 30 -9 25 -29 42 -29 25z"/>
<path d="M9730 1250 c0 -5 5 -10 10 -10 6 0 10 5 10 10 0 6 -4 10 -10 10 -5 0
-10 -4 -10 -10z"/>
<path d="M6921 867 c-6 -16 -11 -32 -11 -37 0 -5 -8 -25 -17 -45 -20 -43 -14
-51 24 -31 48 24 52 35 33 91 l-18 50 -11 -28z"/>
<path d="M8150 775 c0 -37 4 -65 10 -65 6 0 10 28 10 65 0 37 -4 65 -10 65 -6
0 -10 -28 -10 -65z"/>
<path d="M9543 823 c20 -5 22 -19 5 -29 -7 -5 -4 -10 10 -15 12 -5 22 -13 22
-19 0 -17 -31 -24 -40 -9 -5 7 -12 10 -15 7 -12 -12 6 -28 31 -28 29 0 42 25
26 51 -7 11 -8 20 -2 24 21 13 9 25 -22 24 -18 -1 -25 -3 -15 -6z"/>
<path d="M9615 819 c-11 -17 3 -23 20 -9 12 10 16 9 21 -4 4 -11 -3 -28 -22
-47 l-28 -29 40 1 c22 1 30 4 17 6 l-23 4 22 29 c17 24 19 32 8 45 -14 17 -46
20 -55 4z"/>
<path d="M9753 823 c20 -5 22 -19 5 -29 -7 -5 -4 -10 10 -15 12 -5 22 -13 22
-19 0 -17 -31 -24 -40 -9 -5 7 -12 10 -15 7 -12 -12 6 -28 31 -28 29 0 42 25
26 51 -7 11 -8 20 -2 24 21 13 9 25 -22 24 -18 -1 -25 -3 -15 -6z"/>
<path d="M9843 823 c20 -5 22 -14 5 -31 -9 -9 -8 -12 5 -12 10 0 17 -8 17 -20
0 -23 -19 -26 -39 -7 -11 10 -13 9 -9 -3 7 -23 62 -20 66 4 2 10 -2 22 -9 27
-11 6 -11 11 -1 21 20 20 14 28 -20 27 -18 -1 -25 -3 -15 -6z"/>
<path d="M9917 823 c-14 -14 -6 -23 12 -14 18 10 31 6 31 -10 0 -4 -12 -21
-26 -38 l-26 -31 34 1 c18 1 25 3 16 6 -15 4 -15 6 0 32 8 15 13 35 9 44 -6
17 -38 23 -50 10z"/>
<path d="M10168 786 c-15 -18 -25 -36 -21 -40 12 -12 113 -7 113 7 -1 14 -46
67 -57 66 -4 0 -20 -15 -35 -33z"/>
<path d="M8280 790 c-15 -15 -19 -27 -14 -43 9 -29 22 -36 61 -35 32 1 33 3
33 45 0 30 -4 43 -14 43 -8 0 -21 3 -29 6 -9 3 -25 -4 -37 -16z m55 -30 c0
-18 -6 -26 -21 -28 -26 -4 -40 24 -23 45 18 21 44 11 44 -17z"/>
<path d="M8413 803 c-20 -4 -23 -11 -23 -49 0 -53 18 -59 22 -7 2 27 8 39 21
41 14 3 17 -4 17 -37 0 -23 5 -41 10 -41 17 0 12 87 -6 94 -9 3 -16 5 -17 5
-1 -1 -12 -4 -24 -6z"/>
<path d="M8200 755 c0 -25 5 -45 10 -45 6 0 10 16 10 35 0 22 6 38 18 44 14 9
13 10 -10 11 -26 0 -28 -3 -28 -45z"/>
<path d="M7765 780 c-3 -5 3 -10 15 -10 12 0 18 5 15 10 -3 6 -10 10 -15 10
-5 0 -12 -4 -15 -10z"/>
<path d="M6213 748 c-16 -20 -22 -68 -9 -68 27 1 50 38 40 65 -7 18 -18 19
-31 3z"/>
<path d="M6710 710 c-86 -49 -126 -94 -100 -110 19 -12 50 0 114 43 74 50 96
72 96 97 0 29 -15 25 -110 -30z"/>
<path d="M7620 708 l0 -38 160 0 160 0 0 38 0 37 -160 0 -160 0 0 -37z"/>
<path d="M9696 742 c-2 -4 -1 -14 5 -22 7 -12 9 -10 9 8 0 23 -5 28 -14 14z"/>
<path d="M1975 460 c-19 -31 42 -68 86 -51 22 8 22 9 -14 26 -20 9 -37 21 -37
26 0 12 -27 11 -35 -1z"/>
</g>
</svg>
